<svg xmlns="http://www.w3.org/2000/svg" width="1080" height="1920" viewBox="0 0 1080 1920">

    
<!--     <path d="
    	M539.419,917.845
    	c-45.436 -106.106, -174.588 -81.349, -175.438 41.8, -0.471 67.633, 61.5 92.923, 102.76 119.963, 40.009 26.22, 68.484 62.09, 72.946 77.36
    	L539.419 917.845
    	Z" stroke="blue" fill="rgba(0, 0, 0, 0)"/> -->

    	<path d="
    	M539.419,917.845
    	c-45.436 -106.106, -174.588 -81.349, -175.438 41.8, -0.471 67.633, 61.5 92.923, 102.76 119.963, 40.009 26.22, 68.484 62.09, 72.946 77.36
    	L0 1156.968" 
    	stroke="blue" fill="rgba(0, 0, 0, 0)"/>

    <circle cx="539.419" cy="917.845" r="10" fill="red"/>
    <circle cx="363.981" cy="959.645" r="10" fill="red"/>
    <circle cx="466.741" cy="1079.608" r="10" fill="red"/>
    <circle cx="539.687" cy="1156.968" r="10" fill="red"/>
    <circle cx="0" cy="1156.968" r="10" fill="red"/>

</svg>
